<mxfile host="app.diagrams.net" agent="Mozilla/5.0 (Windows NT 10.0; Win64; x64) AppleWebKit/537.36 (KHTML, like Gecko) Chrome/121.0.0.0 Safari/537.36" version="26.1.2">
  <diagram name="第 1 页" id="W3BVOUTEY-KTllS0l63H">
    <mxGraphModel dx="1195" dy="615" grid="1" gridSize="10" guides="1" tooltips="1" connect="1" arrows="1" fold="1" page="1" pageScale="1" pageWidth="827" pageHeight="1169" math="0" shadow="0">
      <root>
        <mxCell id="0" />
        <mxCell id="1" parent="0" />
        <mxCell id="PugjqOxifg0IGrEvEy98-204" value="" style="rounded=0;whiteSpace=wrap;html=1;" vertex="1" parent="1">
          <mxGeometry x="30" y="240" width="580" height="270" as="geometry" />
        </mxCell>
        <mxCell id="PugjqOxifg0IGrEvEy98-112" value="&lt;font face=&quot;宋体&quot; style=&quot;font-size: 14px;&quot;&gt;差异化初始化策略&lt;/font&gt;" style="rounded=0;whiteSpace=wrap;html=1;strokeColor=#FFFFFF;fontSize=16;" vertex="1" parent="1">
          <mxGeometry x="312" y="460" width="80" height="36" as="geometry" />
        </mxCell>
        <mxCell id="PugjqOxifg0IGrEvEy98-85" value="" style="rounded=1;whiteSpace=wrap;html=1;" vertex="1" parent="1">
          <mxGeometry x="40" y="460" width="270" height="40" as="geometry" />
        </mxCell>
        <mxCell id="PugjqOxifg0IGrEvEy98-183" style="edgeStyle=orthogonalEdgeStyle;rounded=0;orthogonalLoop=1;jettySize=auto;html=1;exitX=0.993;exitY=0.897;exitDx=0;exitDy=0;exitPerimeter=0;entryX=0;entryY=0.465;entryDx=0;entryDy=0;entryPerimeter=0;" edge="1" parent="1" source="PugjqOxifg0IGrEvEy98-48" target="PugjqOxifg0IGrEvEy98-169">
          <mxGeometry relative="1" as="geometry">
            <mxPoint x="490" y="360" as="targetPoint" />
          </mxGeometry>
        </mxCell>
        <mxCell id="PugjqOxifg0IGrEvEy98-184" style="edgeStyle=orthogonalEdgeStyle;rounded=0;orthogonalLoop=1;jettySize=auto;html=1;exitX=1;exitY=0.096;exitDx=0;exitDy=0;exitPerimeter=0;entryX=0;entryY=0.429;entryDx=0;entryDy=0;entryPerimeter=0;" edge="1" parent="1" source="PugjqOxifg0IGrEvEy98-48" target="PugjqOxifg0IGrEvEy98-165">
          <mxGeometry relative="1" as="geometry">
            <mxPoint x="490" y="280" as="targetPoint" />
          </mxGeometry>
        </mxCell>
        <mxCell id="PugjqOxifg0IGrEvEy98-48" value="" style="rounded=0;whiteSpace=wrap;html=1;fontSize=15;" vertex="1" parent="1">
          <mxGeometry x="400" y="270.42" width="80" height="100" as="geometry" />
        </mxCell>
        <mxCell id="PugjqOxifg0IGrEvEy98-78" value="" style="ellipse;whiteSpace=wrap;html=1;aspect=fixed;fillColor=#ffe6cc;strokeColor=#d79b00;" vertex="1" parent="1">
          <mxGeometry x="260" y="465" width="30" height="30" as="geometry" />
        </mxCell>
        <mxCell id="PugjqOxifg0IGrEvEy98-79" value="&lt;span style=&quot;color: rgba(0, 0, 0, 0); font-family: monospace; font-size: 0px; text-align: start; text-wrap: nowrap;&quot;&gt;%3CmxGraphModel%3E%3Croot%3E%3CmxCell%20id%3D%220%22%2F%3E%3CmxCell%20id%3D%221%22%20parent%3D%220%22%2F%3E%3CmxCell%20id%3D%222%22%20value%3D%22%22%20style%3D%22ellipse%3BwhiteSpace%3Dwrap%3Bhtml%3D1%3Baspect%3Dfixed%3BfillColor%3D%23ffe6cc%3BstrokeColor%3D%23d79b00%3B%22%20vertex%3D%221%22%20parent%3D%221%22%3E%3CmxGeometry%20x%3D%2280%22%20y%3D%22290%22%20width%3D%2230%22%20height%3D%2230%22%20as%3D%22geometry%22%2F%3E%3C%2FmxCell%3E%3C%2Froot%3E%3C%2FmxGraphModel%3E&lt;/span&gt;" style="triangle;whiteSpace=wrap;html=1;fillColor=#f5f5f5;gradientColor=#b3b3b3;strokeColor=#666666;" vertex="1" parent="1">
          <mxGeometry x="102" y="465" width="30" height="30" as="geometry" />
        </mxCell>
        <mxCell id="PugjqOxifg0IGrEvEy98-80" value="" style="ellipse;whiteSpace=wrap;html=1;aspect=fixed;fillColor=#f8cecc;strokeColor=#b85450;" vertex="1" parent="1">
          <mxGeometry x="220" y="465" width="30" height="30" as="geometry" />
        </mxCell>
        <mxCell id="PugjqOxifg0IGrEvEy98-81" value="" style="ellipse;whiteSpace=wrap;html=1;aspect=fixed;fillColor=#dae8fc;strokeColor=#6c8ebf;" vertex="1" parent="1">
          <mxGeometry x="180" y="465" width="30" height="30" as="geometry" />
        </mxCell>
        <mxCell id="PugjqOxifg0IGrEvEy98-82" value="" style="whiteSpace=wrap;html=1;aspect=fixed;fillColor=#f5f5f5;fontColor=#333333;strokeColor=#666666;" vertex="1" parent="1">
          <mxGeometry x="140" y="465" width="30" height="30" as="geometry" />
        </mxCell>
        <mxCell id="PugjqOxifg0IGrEvEy98-111" style="edgeStyle=orthogonalEdgeStyle;rounded=0;orthogonalLoop=1;jettySize=auto;html=1;exitX=1;exitY=0.5;exitDx=0;exitDy=0;entryX=0;entryY=0.818;entryDx=0;entryDy=0;entryPerimeter=0;" edge="1" parent="1" source="PugjqOxifg0IGrEvEy98-85" target="PugjqOxifg0IGrEvEy98-88">
          <mxGeometry relative="1" as="geometry">
            <mxPoint x="360" y="500" as="targetPoint" />
          </mxGeometry>
        </mxCell>
        <mxCell id="PugjqOxifg0IGrEvEy98-117" style="edgeStyle=orthogonalEdgeStyle;rounded=0;orthogonalLoop=1;jettySize=auto;html=1;entryX=0;entryY=0.5;entryDx=0;entryDy=0;exitX=1.001;exitY=0.36;exitDx=0;exitDy=0;exitPerimeter=0;" edge="1" parent="1" source="PugjqOxifg0IGrEvEy98-45" target="PugjqOxifg0IGrEvEy98-48">
          <mxGeometry relative="1" as="geometry">
            <mxPoint x="390" y="347.5" as="targetPoint" />
          </mxGeometry>
        </mxCell>
        <mxCell id="PugjqOxifg0IGrEvEy98-45" value="" style="rounded=1;whiteSpace=wrap;html=1;" vertex="1" parent="1">
          <mxGeometry x="40" y="250" width="270" height="195" as="geometry" />
        </mxCell>
        <mxCell id="PugjqOxifg0IGrEvEy98-1" value="" style="rounded=0;whiteSpace=wrap;html=1;fillColor=#f5f5f5;fontColor=#333333;strokeColor=#666666;" vertex="1" parent="1">
          <mxGeometry x="220" y="323.42857142857144" width="30" height="31.714285714285715" as="geometry" />
        </mxCell>
        <mxCell id="PugjqOxifg0IGrEvEy98-2" value="&lt;span style=&quot;color: rgba(0, 0, 0, 0); font-family: monospace; font-size: 0px; text-align: start; text-wrap: nowrap;&quot;&gt;%3CmxGraphModel%3E%3Croot%3E%3CmxCell%20id%3D%220%22%2F%3E%3CmxCell%20id%3D%221%22%20parent%3D%220%22%2F%3E%3CmxCell%20id%3D%222%22%20value%3D%22%22%20style%3D%22ellipse%3BwhiteSpace%3Dwrap%3Bhtml%3D1%3Baspect%3Dfixed%3BfillColor%3D%23ffe6cc%3BstrokeColor%3D%23d79b00%3B%22%20vertex%3D%221%22%20parent%3D%221%22%3E%3CmxGeometry%20x%3D%2280%22%20y%3D%22290%22%20width%3D%2230%22%20height%3D%2230%22%20as%3D%22geometry%22%2F%3E%3C%2FmxCell%3E%3C%2Froot%3E%3C%2FmxGraphModel%3E&lt;/span&gt;" style="triangle;whiteSpace=wrap;html=1;fillColor=#f5f5f5;gradientColor=#b3b3b3;strokeColor=#666666;" vertex="1" parent="1">
          <mxGeometry x="50" y="334" width="30" height="31.714285714285715" as="geometry" />
        </mxCell>
        <mxCell id="PugjqOxifg0IGrEvEy98-3" value="" style="triangle;whiteSpace=wrap;html=1;fillColor=#f5f5f5;gradientColor=#b3b3b3;strokeColor=#666666;" vertex="1" parent="1">
          <mxGeometry x="260" y="408" width="30" height="31.714285714285715" as="geometry" />
        </mxCell>
        <mxCell id="PugjqOxifg0IGrEvEy98-4" value="" style="whiteSpace=wrap;html=1;aspect=fixed;fillColor=#f5f5f5;fontColor=#333333;strokeColor=#666666;" vertex="1" parent="1">
          <mxGeometry x="130" y="302.2857142857143" width="30" height="30" as="geometry" />
        </mxCell>
        <mxCell id="PugjqOxifg0IGrEvEy98-6" value="" style="ellipse;whiteSpace=wrap;html=1;aspect=fixed;fillColor=#f8cecc;strokeColor=#b85450;" vertex="1" parent="1">
          <mxGeometry x="120" y="344.57142857142856" width="30" height="30" as="geometry" />
        </mxCell>
        <mxCell id="PugjqOxifg0IGrEvEy98-7" value="" style="ellipse;whiteSpace=wrap;html=1;aspect=fixed;fillColor=#f8cecc;strokeColor=#b85450;" vertex="1" parent="1">
          <mxGeometry x="170" y="323.42857142857144" width="30" height="30" as="geometry" />
        </mxCell>
        <mxCell id="PugjqOxifg0IGrEvEy98-8" value="" style="ellipse;whiteSpace=wrap;html=1;aspect=fixed;fillColor=#ffe6cc;strokeColor=#d79b00;" vertex="1" parent="1">
          <mxGeometry x="80" y="281.14285714285717" width="30" height="30" as="geometry" />
        </mxCell>
        <mxCell id="PugjqOxifg0IGrEvEy98-10" value="" style="ellipse;whiteSpace=wrap;html=1;aspect=fixed;fillColor=#ffe6cc;strokeColor=#d79b00;" vertex="1" parent="1">
          <mxGeometry x="270" y="334" width="30" height="30" as="geometry" />
        </mxCell>
        <mxCell id="PugjqOxifg0IGrEvEy98-11" value="" style="ellipse;whiteSpace=wrap;html=1;aspect=fixed;fillColor=#ffe6cc;strokeColor=#d79b00;" vertex="1" parent="1">
          <mxGeometry x="200" y="376.2857142857143" width="30" height="30" as="geometry" />
        </mxCell>
        <mxCell id="PugjqOxifg0IGrEvEy98-13" value="" style="ellipse;whiteSpace=wrap;html=1;aspect=fixed;fillColor=#dae8fc;strokeColor=#6c8ebf;" vertex="1" parent="1">
          <mxGeometry x="200" y="270.57142857142856" width="30" height="30" as="geometry" />
        </mxCell>
        <mxCell id="PugjqOxifg0IGrEvEy98-17" value="" style="whiteSpace=wrap;html=1;aspect=fixed;fillColor=#f5f5f5;fontColor=#333333;strokeColor=#666666;" vertex="1" parent="1">
          <mxGeometry x="150" y="376.2857142857143" width="30" height="30" as="geometry" />
        </mxCell>
        <mxCell id="PugjqOxifg0IGrEvEy98-22" value="" style="ellipse;whiteSpace=wrap;html=1;aspect=fixed;fillColor=#dae8fc;strokeColor=#6c8ebf;" vertex="1" parent="1">
          <mxGeometry x="100" y="397.42857142857144" width="30" height="30" as="geometry" />
        </mxCell>
        <mxCell id="PugjqOxifg0IGrEvEy98-25" value="" style="endArrow=none;html=1;rounded=0;" edge="1" parent="1" source="PugjqOxifg0IGrEvEy98-4" target="PugjqOxifg0IGrEvEy98-13">
          <mxGeometry width="50" height="50" relative="1" as="geometry">
            <mxPoint x="350" y="408" as="sourcePoint" />
            <mxPoint x="400" y="355.1428571428571" as="targetPoint" />
          </mxGeometry>
        </mxCell>
        <mxCell id="PugjqOxifg0IGrEvEy98-26" value="" style="endArrow=none;html=1;rounded=0;" edge="1" parent="1" source="PugjqOxifg0IGrEvEy98-8" target="PugjqOxifg0IGrEvEy98-4">
          <mxGeometry width="50" height="50" relative="1" as="geometry">
            <mxPoint x="-10" y="386.8571428571429" as="sourcePoint" />
            <mxPoint x="40" y="334" as="targetPoint" />
          </mxGeometry>
        </mxCell>
        <mxCell id="PugjqOxifg0IGrEvEy98-30" value="" style="endArrow=none;html=1;rounded=0;entryX=0;entryY=0.5;entryDx=0;entryDy=0;" edge="1" parent="1" source="PugjqOxifg0IGrEvEy98-2" target="PugjqOxifg0IGrEvEy98-4">
          <mxGeometry width="50" height="50" relative="1" as="geometry">
            <mxPoint x="350" y="408" as="sourcePoint" />
            <mxPoint x="400" y="355.1428571428571" as="targetPoint" />
          </mxGeometry>
        </mxCell>
        <mxCell id="PugjqOxifg0IGrEvEy98-31" value="" style="endArrow=none;html=1;rounded=0;entryX=0.5;entryY=1;entryDx=0;entryDy=0;" edge="1" parent="1" target="PugjqOxifg0IGrEvEy98-1">
          <mxGeometry width="50" height="50" relative="1" as="geometry">
            <mxPoint x="260" y="408" as="sourcePoint" />
            <mxPoint x="225" y="482.7512882968636" as="targetPoint" />
          </mxGeometry>
        </mxCell>
        <mxCell id="PugjqOxifg0IGrEvEy98-32" value="" style="endArrow=none;html=1;rounded=0;entryX=0;entryY=0.5;entryDx=0;entryDy=0;" edge="1" parent="1" source="PugjqOxifg0IGrEvEy98-2" target="PugjqOxifg0IGrEvEy98-17">
          <mxGeometry width="50" height="50" relative="1" as="geometry">
            <mxPoint x="350" y="408" as="sourcePoint" />
            <mxPoint x="400" y="355.1428571428571" as="targetPoint" />
          </mxGeometry>
        </mxCell>
        <mxCell id="PugjqOxifg0IGrEvEy98-34" value="" style="endArrow=none;html=1;rounded=0;exitX=1;exitY=1;exitDx=0;exitDy=0;entryX=0;entryY=0.5;entryDx=0;entryDy=0;" edge="1" parent="1" source="PugjqOxifg0IGrEvEy98-17" target="PugjqOxifg0IGrEvEy98-3">
          <mxGeometry width="50" height="50" relative="1" as="geometry">
            <mxPoint x="310" y="408" as="sourcePoint" />
            <mxPoint x="360" y="355.1428571428571" as="targetPoint" />
          </mxGeometry>
        </mxCell>
        <mxCell id="PugjqOxifg0IGrEvEy98-35" value="" style="endArrow=none;html=1;rounded=0;exitX=1;exitY=1;exitDx=0;exitDy=0;entryX=0.5;entryY=0;entryDx=0;entryDy=0;" edge="1" parent="1" source="PugjqOxifg0IGrEvEy98-13" target="PugjqOxifg0IGrEvEy98-1">
          <mxGeometry width="50" height="50" relative="1" as="geometry">
            <mxPoint x="310" y="408" as="sourcePoint" />
            <mxPoint x="360" y="355.1428571428571" as="targetPoint" />
          </mxGeometry>
        </mxCell>
        <mxCell id="PugjqOxifg0IGrEvEy98-36" value="" style="endArrow=none;html=1;rounded=0;" edge="1" parent="1" source="PugjqOxifg0IGrEvEy98-22" target="PugjqOxifg0IGrEvEy98-17">
          <mxGeometry width="50" height="50" relative="1" as="geometry">
            <mxPoint x="310" y="408" as="sourcePoint" />
            <mxPoint x="360" y="355.1428571428571" as="targetPoint" />
          </mxGeometry>
        </mxCell>
        <mxCell id="PugjqOxifg0IGrEvEy98-38" value="" style="endArrow=none;html=1;rounded=0;entryX=0.024;entryY=0.371;entryDx=0;entryDy=0;entryPerimeter=0;" edge="1" parent="1" source="PugjqOxifg0IGrEvEy98-1" target="PugjqOxifg0IGrEvEy98-10">
          <mxGeometry width="50" height="50" relative="1" as="geometry">
            <mxPoint x="310" y="408" as="sourcePoint" />
            <mxPoint x="360" y="355.1428571428571" as="targetPoint" />
          </mxGeometry>
        </mxCell>
        <mxCell id="PugjqOxifg0IGrEvEy98-39" value="" style="endArrow=none;html=1;rounded=0;entryX=0;entryY=1;entryDx=0;entryDy=0;exitX=0.5;exitY=0;exitDx=0;exitDy=0;" edge="1" parent="1" source="PugjqOxifg0IGrEvEy98-11" target="PugjqOxifg0IGrEvEy98-1">
          <mxGeometry width="50" height="50" relative="1" as="geometry">
            <mxPoint x="130" y="503.1428571428571" as="sourcePoint" />
            <mxPoint x="180" y="450.2857142857143" as="targetPoint" />
          </mxGeometry>
        </mxCell>
        <mxCell id="PugjqOxifg0IGrEvEy98-40" value="" style="endArrow=none;html=1;rounded=0;" edge="1" parent="1" source="PugjqOxifg0IGrEvEy98-17" target="PugjqOxifg0IGrEvEy98-11">
          <mxGeometry width="50" height="50" relative="1" as="geometry">
            <mxPoint x="310" y="408" as="sourcePoint" />
            <mxPoint x="360" y="355.1428571428571" as="targetPoint" />
          </mxGeometry>
        </mxCell>
        <mxCell id="PugjqOxifg0IGrEvEy98-41" value="" style="endArrow=none;html=1;rounded=0;" edge="1" parent="1" source="PugjqOxifg0IGrEvEy98-17" target="PugjqOxifg0IGrEvEy98-7">
          <mxGeometry width="50" height="50" relative="1" as="geometry">
            <mxPoint x="310" y="408" as="sourcePoint" />
            <mxPoint x="360" y="355.1428571428571" as="targetPoint" />
          </mxGeometry>
        </mxCell>
        <mxCell id="PugjqOxifg0IGrEvEy98-42" value="" style="endArrow=none;html=1;rounded=0;entryX=0.25;entryY=0;entryDx=0;entryDy=0;" edge="1" parent="1" source="PugjqOxifg0IGrEvEy98-6" target="PugjqOxifg0IGrEvEy98-17">
          <mxGeometry width="50" height="50" relative="1" as="geometry">
            <mxPoint x="150" y="492.57142857142856" as="sourcePoint" />
            <mxPoint x="200" y="439.7142857142857" as="targetPoint" />
          </mxGeometry>
        </mxCell>
        <mxCell id="PugjqOxifg0IGrEvEy98-43" value="" style="endArrow=none;html=1;rounded=0;" edge="1" parent="1" source="PugjqOxifg0IGrEvEy98-6" target="PugjqOxifg0IGrEvEy98-4">
          <mxGeometry width="50" height="50" relative="1" as="geometry">
            <mxPoint x="30" y="524.2857142857142" as="sourcePoint" />
            <mxPoint x="80" y="471.42857142857144" as="targetPoint" />
          </mxGeometry>
        </mxCell>
        <mxCell id="PugjqOxifg0IGrEvEy98-44" value="" style="endArrow=none;html=1;rounded=0;" edge="1" parent="1" source="PugjqOxifg0IGrEvEy98-7" target="PugjqOxifg0IGrEvEy98-1">
          <mxGeometry width="50" height="50" relative="1" as="geometry">
            <mxPoint x="140" y="577.1428571428571" as="sourcePoint" />
            <mxPoint x="190" y="524.2857142857142" as="targetPoint" />
          </mxGeometry>
        </mxCell>
        <mxCell id="PugjqOxifg0IGrEvEy98-115" value="&lt;font face=&quot;宋体&quot; style=&quot;font-size: 14px;&quot;&gt;用户-景点-属性异构图&lt;/font&gt;" style="rounded=0;whiteSpace=wrap;html=1;strokeColor=#FFFFFF;fontSize=16;" vertex="1" parent="1">
          <mxGeometry x="87.5" y="252" width="155" height="14.57" as="geometry" />
        </mxCell>
        <mxCell id="PugjqOxifg0IGrEvEy98-116" style="edgeStyle=orthogonalEdgeStyle;rounded=0;orthogonalLoop=1;jettySize=auto;html=1;exitX=0.5;exitY=0;exitDx=0;exitDy=0;entryX=0.5;entryY=1;entryDx=0;entryDy=0;" edge="1" parent="1" source="PugjqOxifg0IGrEvEy98-88" target="PugjqOxifg0IGrEvEy98-48">
          <mxGeometry relative="1" as="geometry" />
        </mxCell>
        <mxCell id="PugjqOxifg0IGrEvEy98-118" value="&lt;font face=&quot;宋体&quot;&gt;异构图注意力网络（HAN）&lt;/font&gt;" style="rounded=0;whiteSpace=wrap;html=1;strokeColor=#FFFFFF;fontSize=16;" vertex="1" parent="1">
          <mxGeometry x="407" y="296.28000000000003" width="66" height="48.29" as="geometry" />
        </mxCell>
        <mxCell id="PugjqOxifg0IGrEvEy98-119" value="&lt;font face=&quot;宋体&quot; style=&quot;font-size: 14px;&quot;&gt;节点集合&lt;/font&gt;" style="rounded=0;whiteSpace=wrap;html=1;strokeColor=#FFFFFF;fontSize=16;" vertex="1" parent="1">
          <mxGeometry x="41" y="470" width="60" height="16" as="geometry" />
        </mxCell>
        <mxCell id="PugjqOxifg0IGrEvEy98-88" value="" style="rounded=0;whiteSpace=wrap;html=1;glass=0;shadow=0;dashed=1;" vertex="1" parent="1">
          <mxGeometry x="400" y="390" width="80" height="110" as="geometry" />
        </mxCell>
        <mxCell id="PugjqOxifg0IGrEvEy98-109" value="" style="group" vertex="1" connectable="0" parent="1">
          <mxGeometry x="410" y="410" width="60" height="20" as="geometry" />
        </mxCell>
        <mxCell id="PugjqOxifg0IGrEvEy98-89" value="" style="rounded=0;whiteSpace=wrap;html=1;fillColor=#83D9CA;strokeColor=default;" vertex="1" parent="PugjqOxifg0IGrEvEy98-109">
          <mxGeometry width="20" height="20" as="geometry" />
        </mxCell>
        <mxCell id="PugjqOxifg0IGrEvEy98-91" value="" style="rounded=0;whiteSpace=wrap;html=1;strokeColor=#000000;fillColor=#7FD4C5;" vertex="1" parent="PugjqOxifg0IGrEvEy98-109">
          <mxGeometry x="20" width="20" height="20" as="geometry" />
        </mxCell>
        <mxCell id="PugjqOxifg0IGrEvEy98-92" value="" style="rounded=0;whiteSpace=wrap;html=1;fillColor=#8CE8D8;" vertex="1" parent="PugjqOxifg0IGrEvEy98-109">
          <mxGeometry x="40" width="20" height="20" as="geometry" />
        </mxCell>
        <mxCell id="PugjqOxifg0IGrEvEy98-101" value="" style="rounded=0;whiteSpace=wrap;html=1;fillColor=#B9E0A5;strokeColor=#000000;" vertex="1" parent="1">
          <mxGeometry x="410" y="440" width="20" height="20" as="geometry" />
        </mxCell>
        <mxCell id="PugjqOxifg0IGrEvEy98-102" value="" style="rounded=0;whiteSpace=wrap;html=1;strokeColor=#000000;fillColor=#D1FFBC;" vertex="1" parent="1">
          <mxGeometry x="430" y="440" width="20" height="20" as="geometry" />
        </mxCell>
        <mxCell id="PugjqOxifg0IGrEvEy98-103" value="" style="rounded=0;whiteSpace=wrap;html=1;fillColor=#B9E0A6;" vertex="1" parent="1">
          <mxGeometry x="450" y="440" width="20" height="20" as="geometry" />
        </mxCell>
        <mxCell id="PugjqOxifg0IGrEvEy98-113" value="" style="group" vertex="1" connectable="0" parent="1">
          <mxGeometry x="410" y="470" width="60" height="20" as="geometry" />
        </mxCell>
        <mxCell id="PugjqOxifg0IGrEvEy98-96" value="" style="rounded=0;whiteSpace=wrap;html=1;fillColor=#D3E6D2;strokeColor=#000000;" vertex="1" parent="PugjqOxifg0IGrEvEy98-113">
          <mxGeometry width="20" height="20" as="geometry" />
        </mxCell>
        <mxCell id="PugjqOxifg0IGrEvEy98-97" value="" style="rounded=0;whiteSpace=wrap;html=1;strokeColor=#000000;fillColor=#C3D4C2;" vertex="1" parent="PugjqOxifg0IGrEvEy98-113">
          <mxGeometry x="20" width="20" height="20" as="geometry" />
        </mxCell>
        <mxCell id="PugjqOxifg0IGrEvEy98-98" value="" style="rounded=0;whiteSpace=wrap;html=1;fillColor=#C2D4C1;" vertex="1" parent="PugjqOxifg0IGrEvEy98-113">
          <mxGeometry x="40" width="20" height="20" as="geometry" />
        </mxCell>
        <mxCell id="PugjqOxifg0IGrEvEy98-121" value="&lt;font face=&quot;宋体&quot; style=&quot;font-size: 14px;&quot;&gt;初始嵌入&lt;/font&gt;" style="rounded=0;whiteSpace=wrap;html=1;strokeColor=#FFFFFF;fontSize=16;" vertex="1" parent="1">
          <mxGeometry x="410" y="392.28999999999996" width="60" height="14" as="geometry" />
        </mxCell>
        <mxCell id="PugjqOxifg0IGrEvEy98-154" value="&lt;font face=&quot;宋体&quot; style=&quot;font-size: 12px;&quot;&gt;图例&lt;/font&gt;" style="rounded=0;whiteSpace=wrap;html=1;strokeColor=#FFFFFF;fontSize=16;" vertex="1" parent="1">
          <mxGeometry x="490" y="408.00000000000006" width="30" height="14" as="geometry" />
        </mxCell>
        <mxCell id="PugjqOxifg0IGrEvEy98-155" value="&lt;span style=&quot;color: rgba(0, 0, 0, 0); font-family: monospace; font-size: 0px; text-align: start; text-wrap: nowrap;&quot;&gt;%3CmxGraphModel%3E%3Croot%3E%3CmxCell%20id%3D%220%22%2F%3E%3CmxCell%20id%3D%221%22%20parent%3D%220%22%2F%3E%3CmxCell%20id%3D%222%22%20value%3D%22%22%20style%3D%22ellipse%3BwhiteSpace%3Dwrap%3Bhtml%3D1%3Baspect%3Dfixed%3BfillColor%3D%23ffe6cc%3BstrokeColor%3D%23d79b00%3B%22%20vertex%3D%221%22%20parent%3D%221%22%3E%3CmxGeometry%20x%3D%2280%22%20y%3D%22290%22%20width%3D%2230%22%20height%3D%2230%22%20as%3D%22geometry%22%2F%3E%3C%2FmxCell%3E%3C%2Froot%3E%3C%2FmxGraphModel%3E&lt;/span&gt;" style="triangle;whiteSpace=wrap;html=1;fillColor=#f5f5f5;gradientColor=#b3b3b3;strokeColor=#666666;" vertex="1" parent="1">
          <mxGeometry x="496" y="431" width="15" height="15" as="geometry" />
        </mxCell>
        <mxCell id="PugjqOxifg0IGrEvEy98-156" value="" style="whiteSpace=wrap;html=1;aspect=fixed;fillColor=#f5f5f5;fontColor=#333333;strokeColor=#666666;" vertex="1" parent="1">
          <mxGeometry x="496" y="456.5" width="15" height="15" as="geometry" />
        </mxCell>
        <mxCell id="PugjqOxifg0IGrEvEy98-157" value="" style="ellipse;whiteSpace=wrap;html=1;aspect=fixed;fillColor=#dae8fc;strokeColor=#6c8ebf;" vertex="1" parent="1">
          <mxGeometry x="543" y="431" width="15" height="15" as="geometry" />
        </mxCell>
        <mxCell id="PugjqOxifg0IGrEvEy98-158" value="" style="ellipse;whiteSpace=wrap;html=1;aspect=fixed;fillColor=#f8cecc;strokeColor=#b85450;" vertex="1" parent="1">
          <mxGeometry x="543" y="455" width="15" height="15" as="geometry" />
        </mxCell>
        <mxCell id="PugjqOxifg0IGrEvEy98-159" value="" style="ellipse;whiteSpace=wrap;html=1;aspect=fixed;fillColor=#ffe6cc;strokeColor=#d79b00;" vertex="1" parent="1">
          <mxGeometry x="543" y="479" width="15" height="15" as="geometry" />
        </mxCell>
        <mxCell id="PugjqOxifg0IGrEvEy98-181" value="" style="group" vertex="1" connectable="0" parent="1">
          <mxGeometry x="500" y="327.43" width="70" height="70" as="geometry" />
        </mxCell>
        <mxCell id="PugjqOxifg0IGrEvEy98-169" value="" style="rounded=0;whiteSpace=wrap;html=1;dashed=1;" vertex="1" parent="PugjqOxifg0IGrEvEy98-181">
          <mxGeometry width="70" height="70" as="geometry" />
        </mxCell>
        <mxCell id="PugjqOxifg0IGrEvEy98-170" value="&lt;font face=&quot;宋体&quot; style=&quot;font-size: 14px;&quot;&gt;景点嵌入&lt;/font&gt;" style="rounded=0;whiteSpace=wrap;html=1;strokeColor=#FFFFFF;fontSize=16;" vertex="1" parent="PugjqOxifg0IGrEvEy98-181">
          <mxGeometry x="5" y="1" width="60" height="14" as="geometry" />
        </mxCell>
        <mxCell id="PugjqOxifg0IGrEvEy98-171" value="" style="group" vertex="1" connectable="0" parent="PugjqOxifg0IGrEvEy98-181">
          <mxGeometry x="5" y="20" width="60" height="20" as="geometry" />
        </mxCell>
        <mxCell id="PugjqOxifg0IGrEvEy98-172" value="" style="rounded=0;whiteSpace=wrap;html=1;fillColor=#E6E6E6;strokeColor=#000000;container=0;" vertex="1" parent="PugjqOxifg0IGrEvEy98-171">
          <mxGeometry width="20" height="20" as="geometry" />
        </mxCell>
        <mxCell id="PugjqOxifg0IGrEvEy98-173" value="" style="rounded=0;whiteSpace=wrap;html=1;strokeColor=#000000;fillColor=#999999;container=0;" vertex="1" parent="PugjqOxifg0IGrEvEy98-171">
          <mxGeometry x="20" width="20" height="20" as="geometry" />
        </mxCell>
        <mxCell id="PugjqOxifg0IGrEvEy98-174" value="" style="rounded=0;whiteSpace=wrap;html=1;fillColor=#FFFFFF;container=0;" vertex="1" parent="PugjqOxifg0IGrEvEy98-171">
          <mxGeometry x="40" width="20" height="20" as="geometry" />
        </mxCell>
        <mxCell id="PugjqOxifg0IGrEvEy98-175" value="" style="group" vertex="1" connectable="0" parent="PugjqOxifg0IGrEvEy98-181">
          <mxGeometry x="5" y="44" width="60" height="20" as="geometry" />
        </mxCell>
        <mxCell id="PugjqOxifg0IGrEvEy98-176" value="" style="rounded=0;whiteSpace=wrap;html=1;fillColor=#FFFFFF;strokeColor=#000000;" vertex="1" parent="PugjqOxifg0IGrEvEy98-175">
          <mxGeometry width="20" height="20" as="geometry" />
        </mxCell>
        <mxCell id="PugjqOxifg0IGrEvEy98-177" value="" style="rounded=0;whiteSpace=wrap;html=1;strokeColor=#000000;fillColor=#CCCCCC;" vertex="1" parent="PugjqOxifg0IGrEvEy98-175">
          <mxGeometry x="20" width="20" height="20" as="geometry" />
        </mxCell>
        <mxCell id="PugjqOxifg0IGrEvEy98-178" value="" style="rounded=0;whiteSpace=wrap;html=1;fillColor=#B3B3B3;" vertex="1" parent="PugjqOxifg0IGrEvEy98-175">
          <mxGeometry x="40" width="20" height="20" as="geometry" />
        </mxCell>
        <mxCell id="PugjqOxifg0IGrEvEy98-190" value="&lt;font face=&quot;宋体&quot; style=&quot;font-size: 12px;&quot;&gt;用户&lt;/font&gt;" style="rounded=0;whiteSpace=wrap;html=1;strokeColor=#FFFFFF;fontSize=16;" vertex="1" parent="1">
          <mxGeometry x="512" y="430" width="30" height="14" as="geometry" />
        </mxCell>
        <mxCell id="PugjqOxifg0IGrEvEy98-191" value="&lt;font face=&quot;宋体&quot; style=&quot;font-size: 12px;&quot;&gt;景点&lt;/font&gt;" style="rounded=0;whiteSpace=wrap;html=1;strokeColor=#FFFFFF;fontSize=16;" vertex="1" parent="1">
          <mxGeometry x="512" y="455.5" width="30" height="14" as="geometry" />
        </mxCell>
        <mxCell id="PugjqOxifg0IGrEvEy98-192" value="&lt;font face=&quot;宋体&quot; style=&quot;font-size: 12px;&quot;&gt;城市&lt;/font&gt;" style="rounded=0;whiteSpace=wrap;html=1;strokeColor=#FFFFFF;fontSize=16;" vertex="1" parent="1">
          <mxGeometry x="560" y="430" width="30" height="14" as="geometry" />
        </mxCell>
        <mxCell id="PugjqOxifg0IGrEvEy98-194" value="&lt;font face=&quot;宋体&quot; style=&quot;font-size: 12px;&quot;&gt;类别&lt;/font&gt;" style="rounded=0;whiteSpace=wrap;html=1;strokeColor=#FFFFFF;fontSize=16;" vertex="1" parent="1">
          <mxGeometry x="560" y="454" width="30" height="14" as="geometry" />
        </mxCell>
        <mxCell id="PugjqOxifg0IGrEvEy98-195" value="&lt;font face=&quot;宋体&quot; style=&quot;font-size: 12px;&quot;&gt;时间戳&lt;/font&gt;" style="rounded=0;whiteSpace=wrap;html=1;strokeColor=#FFFFFF;fontSize=16;" vertex="1" parent="1">
          <mxGeometry x="560" y="478" width="40" height="14" as="geometry" />
        </mxCell>
        <mxCell id="PugjqOxifg0IGrEvEy98-200" value="" style="line;strokeWidth=1;html=1;" vertex="1" parent="1">
          <mxGeometry x="570" y="354.57" width="10" height="10" as="geometry" />
        </mxCell>
        <mxCell id="PugjqOxifg0IGrEvEy98-202" value="" style="line;strokeWidth=1;direction=south;html=1;" vertex="1" parent="1">
          <mxGeometry x="575" y="319.93" width="10" height="40.07" as="geometry" />
        </mxCell>
        <mxCell id="PugjqOxifg0IGrEvEy98-186" style="edgeStyle=orthogonalEdgeStyle;rounded=0;orthogonalLoop=1;jettySize=auto;html=1;exitX=1;exitY=0.5;exitDx=0;exitDy=0;endArrow=classic;startFill=0;endFill=1;" edge="1" parent="1" source="PugjqOxifg0IGrEvEy98-165">
          <mxGeometry relative="1" as="geometry">
            <mxPoint x="630" y="320" as="targetPoint" />
            <Array as="points">
              <mxPoint x="580" y="285" />
              <mxPoint x="580" y="320" />
            </Array>
          </mxGeometry>
        </mxCell>
        <mxCell id="PugjqOxifg0IGrEvEy98-165" value="" style="rounded=0;whiteSpace=wrap;html=1;dashed=1;" vertex="1" parent="1">
          <mxGeometry x="500" y="250" width="70" height="70" as="geometry" />
        </mxCell>
        <mxCell id="PugjqOxifg0IGrEvEy98-150" value="&lt;font face=&quot;宋体&quot; style=&quot;font-size: 14px;&quot;&gt;用户嵌入&lt;/font&gt;" style="rounded=0;whiteSpace=wrap;html=1;strokeColor=#FFFFFF;fontSize=16;" vertex="1" parent="1">
          <mxGeometry x="505" y="251" width="60" height="14" as="geometry" />
        </mxCell>
        <mxCell id="PugjqOxifg0IGrEvEy98-166" value="" style="group" vertex="1" connectable="0" parent="1">
          <mxGeometry x="505" y="270" width="60" height="20" as="geometry" />
        </mxCell>
        <mxCell id="PugjqOxifg0IGrEvEy98-127" value="" style="rounded=0;whiteSpace=wrap;html=1;fillColor=#4D4D4D;strokeColor=#000000;container=0;" vertex="1" parent="PugjqOxifg0IGrEvEy98-166">
          <mxGeometry width="20" height="20" as="geometry" />
        </mxCell>
        <mxCell id="PugjqOxifg0IGrEvEy98-128" value="" style="rounded=0;whiteSpace=wrap;html=1;strokeColor=#000000;fillColor=#999999;container=0;" vertex="1" parent="PugjqOxifg0IGrEvEy98-166">
          <mxGeometry x="20" width="20" height="20" as="geometry" />
        </mxCell>
        <mxCell id="PugjqOxifg0IGrEvEy98-129" value="" style="rounded=0;whiteSpace=wrap;html=1;fillColor=#B3B3B3;container=0;" vertex="1" parent="PugjqOxifg0IGrEvEy98-166">
          <mxGeometry x="40" width="20" height="20" as="geometry" />
        </mxCell>
        <mxCell id="PugjqOxifg0IGrEvEy98-130" value="" style="group" vertex="1" connectable="0" parent="1">
          <mxGeometry x="505" y="294" width="60" height="20" as="geometry" />
        </mxCell>
        <mxCell id="PugjqOxifg0IGrEvEy98-131" value="" style="rounded=0;whiteSpace=wrap;html=1;fillColor=#333333;strokeColor=#000000;" vertex="1" parent="PugjqOxifg0IGrEvEy98-130">
          <mxGeometry width="20" height="20" as="geometry" />
        </mxCell>
        <mxCell id="PugjqOxifg0IGrEvEy98-132" value="" style="rounded=0;whiteSpace=wrap;html=1;strokeColor=#000000;fillColor=#4D4D4D;" vertex="1" parent="PugjqOxifg0IGrEvEy98-130">
          <mxGeometry x="20" width="20" height="20" as="geometry" />
        </mxCell>
        <mxCell id="PugjqOxifg0IGrEvEy98-133" value="" style="rounded=0;whiteSpace=wrap;html=1;fillColor=#808080;" vertex="1" parent="PugjqOxifg0IGrEvEy98-130">
          <mxGeometry x="40" width="20" height="20" as="geometry" />
        </mxCell>
      </root>
    </mxGraphModel>
  </diagram>
</mxfile>
